<?xml version="1.0" encoding="UTF-8"?>
<svg id="uuid-679b5372-617e-42e2-aa84-cf5ce95adac7" data-name="Capa 2" xmlns="http://www.w3.org/2000/svg" viewBox="0 0 1218 1080">
  <path d="M1077.57,454.08v-13.9c0-6.49-5.26-11.75-11.75-11.75h-19.58c-4.7-30.57-12.57-61.92-23.84-93.28-24.83-69.04-62.31-127.64-105.56-170.63l11.95-11.67c-83.46-78.18-195.64-126.06-319.01-126.06s-236.96,48.46-320.57,127.5l10.55,10.55c-34.91,34.5-66.5,77.85-91.44,128.13-22.41,45.18-37.1,91.26-44.45,135.46h-10.49c-6.49,0-11.75,5.26-11.75,11.75v13.24c-50.95,27.19-85.63,80.87-85.63,142.66s34.68,115.47,85.63,142.66v14.45c0,6.49,5.26,11.75,11.75,11.75h45.52c3.35,10.83,13.44,18.69,25.37,18.69h19.85c12.67,0,22.94-10.27,22.94-22.94V430.27c0-12.67-10.27-22.94-22.94-22.94h-14.44c7.94-26.78,18.49-53.82,31.75-80.55,22.64-45.65,50.76-85.59,81.87-118.38l7.26,7.26c69.64-59.83,160.19-95.99,259.2-95.99s187.49,35.34,256.8,93.95l3.27-3.19c42.21,42.76,78.75,100.43,103.1,168.15,3.45,9.59,6.58,19.18,9.4,28.75h-7.88c-12.67,0-22.94,10.27-22.94,22.94v330.43c0,11.51,8.49,21.01,19.54,22.66-37.18,101.73-139.09,180.24-266.17,202.88-3.31-30.17-28.88-53.65-59.93-53.65-33.31,0-60.31,27-60.31,60.31s27,60.31,60.31,60.31c30.37,0,55.49-22.46,59.68-51.67,138.22-20.43,248.86-106.57,282.87-217.89h6.81c11.93,0,22.02-7.87,25.37-18.69h46.13c6.49,0,11.75-5.26,11.75-11.75v-15.11c50.29-27.39,84.43-80.7,84.43-142s-34.13-114.61-84.43-142Z" fill="#2e348b"/>
  <path d="M778.05,748.98c49.43-38.34,80.4-93.18,80.4-154.1,0-115.9-112.05-209.86-250.27-209.86s-250.27,93.96-250.27,209.86,112.05,209.86,250.27,209.86c27.24,0,53.45-3.66,77.99-10.41,73.97,49.83,140.92,27.29,140.92,27.29,0,0-38.33-19.79-49.04-72.65Zm-293.5-125.15c-18.65,0-33.77-15.12-33.77-33.77s15.12-33.77,33.77-33.77,33.77,15.12,33.77,33.77-15.12,33.77-33.77,33.77Zm118.8,0c-18.65,0-33.77-15.12-33.77-33.77s15.12-33.77,33.77-33.77,33.77,15.12,33.77,33.77-15.12,33.77-33.77,33.77Zm118.8,0c-18.65,0-33.77-15.12-33.77-33.77s15.12-33.77,33.77-33.77,33.77,15.12,33.77,33.77-15.12,33.77-33.77,33.77Z" fill="#e4032c"/>
</svg>